<mxfile modified="2023-04-22T12:34:15.544Z" host="Electron" agent="Mozilla/5.0 (Windows NT 10.0; Win64; x64) AppleWebKit/537.36 (KHTML, like Gecko) draw.io/21.1.2 Chrome/106.0.5249.199 Electron/21.4.3 Safari/537.36" etag="VZ93_1UoS8bDFg149Pl2" version="21.1.2" type="device">
  <diagram id="WI9T0HZ2pTsCkuznbFz-" name="Page-1">
    <mxGraphModel dx="1434" dy="844" grid="1" gridSize="10" guides="1" tooltips="1" connect="1" arrows="1" fold="1" page="1" pageScale="1" pageWidth="1169" pageHeight="827" math="0" shadow="0">
      <root>
        <mxCell id="0" />
        <mxCell id="1" parent="0" />
        <mxCell id="JJulHIe-GQwOmJBqDQSy-1" value="" style="verticalLabelPosition=bottom;html=1;verticalAlign=top;align=center;strokeColor=none;fillColor=#00BEF2;shape=mxgraph.azure.worker_role;" vertex="1" parent="1">
          <mxGeometry x="336" y="66" width="50" height="40" as="geometry" />
        </mxCell>
        <mxCell id="JJulHIe-GQwOmJBqDQSy-2" value="Web&lt;br&gt;Site" style="verticalLabelPosition=bottom;html=1;verticalAlign=top;align=center;strokeColor=none;fillColor=#00BEF2;shape=mxgraph.azure.azure_website;pointerEvents=1;" vertex="1" parent="1">
          <mxGeometry x="315" y="400" width="50" height="50" as="geometry" />
        </mxCell>
        <mxCell id="JJulHIe-GQwOmJBqDQSy-3" value="" style="verticalLabelPosition=bottom;html=1;verticalAlign=top;align=center;strokeColor=none;fillColor=#00BEF2;shape=mxgraph.azure.database;" vertex="1" parent="1">
          <mxGeometry x="670" y="230" width="70" height="80" as="geometry" />
        </mxCell>
        <mxCell id="JJulHIe-GQwOmJBqDQSy-4" value="" style="verticalLabelPosition=bottom;html=1;verticalAlign=top;align=center;strokeColor=none;fillColor=#00BEF2;shape=mxgraph.azure.laptop;pointerEvents=1;" vertex="1" parent="1">
          <mxGeometry x="120" y="640" width="50" height="30" as="geometry" />
        </mxCell>
        <mxCell id="JJulHIe-GQwOmJBqDQSy-7" value="LONG TASKS QUEUE" style="verticalLabelPosition=bottom;html=1;verticalAlign=top;align=center;strokeColor=none;fillColor=#00BEF2;shape=mxgraph.azure.queue_generic;pointerEvents=1;fontStyle=1" vertex="1" parent="1">
          <mxGeometry x="270" y="243" width="180" height="40" as="geometry" />
        </mxCell>
        <mxCell id="JJulHIe-GQwOmJBqDQSy-10" value="" style="verticalLabelPosition=bottom;html=1;verticalAlign=top;align=center;strokeColor=none;fillColor=#00BEF2;shape=mxgraph.azure.user;" vertex="1" parent="1">
          <mxGeometry x="70" y="700" width="47.5" height="50" as="geometry" />
        </mxCell>
        <mxCell id="JJulHIe-GQwOmJBqDQSy-11" value="" style="verticalLabelPosition=bottom;html=1;verticalAlign=top;align=center;strokeColor=none;fillColor=#00BEF2;shape=mxgraph.azure.mobile;pointerEvents=1;" vertex="1" parent="1">
          <mxGeometry x="550" y="660" width="35" height="50" as="geometry" />
        </mxCell>
        <mxCell id="JJulHIe-GQwOmJBqDQSy-12" value="" style="verticalLabelPosition=bottom;html=1;verticalAlign=top;align=center;strokeColor=none;fillColor=#00BEF2;shape=mxgraph.azure.user;" vertex="1" parent="1">
          <mxGeometry x="520" y="730" width="47.5" height="50" as="geometry" />
        </mxCell>
        <mxCell id="JJulHIe-GQwOmJBqDQSy-13" value="" style="verticalLabelPosition=bottom;html=1;verticalAlign=top;align=center;strokeColor=none;fillColor=#00BEF2;shape=mxgraph.azure.user;" vertex="1" parent="1">
          <mxGeometry x="315" y="730" width="47.5" height="50" as="geometry" />
        </mxCell>
        <mxCell id="JJulHIe-GQwOmJBqDQSy-14" value="" style="verticalLabelPosition=bottom;html=1;verticalAlign=top;align=center;strokeColor=none;fillColor=#00BEF2;shape=mxgraph.azure.laptop;pointerEvents=1;" vertex="1" parent="1">
          <mxGeometry x="345" y="670" width="50" height="30" as="geometry" />
        </mxCell>
        <mxCell id="JJulHIe-GQwOmJBqDQSy-15" value="" style="verticalLabelPosition=bottom;html=1;verticalAlign=top;align=center;strokeColor=none;fillColor=#00BEF2;shape=mxgraph.azure.laptop;pointerEvents=1;" vertex="1" parent="1">
          <mxGeometry x="770" y="700" width="50" height="30" as="geometry" />
        </mxCell>
        <mxCell id="JJulHIe-GQwOmJBqDQSy-16" value="" style="verticalLabelPosition=bottom;html=1;verticalAlign=top;align=center;strokeColor=none;fillColor=#00BEF2;shape=mxgraph.azure.user;" vertex="1" parent="1">
          <mxGeometry x="760" y="750" width="47.5" height="50" as="geometry" />
        </mxCell>
        <mxCell id="JJulHIe-GQwOmJBqDQSy-21" value="Big Report&lt;br&gt;Request" style="curved=1;endArrow=classic;html=1;rounded=0;entryX=-0.06;entryY=0.66;entryDx=0;entryDy=0;entryPerimeter=0;exitX=0.5;exitY=0;exitDx=0;exitDy=0;exitPerimeter=0;" edge="1" parent="1" source="JJulHIe-GQwOmJBqDQSy-4" target="JJulHIe-GQwOmJBqDQSy-2">
          <mxGeometry x="-0.2664" y="6" width="50" height="50" relative="1" as="geometry">
            <mxPoint x="140" y="640" as="sourcePoint" />
            <mxPoint x="190" y="590" as="targetPoint" />
            <Array as="points">
              <mxPoint x="160" y="470" />
            </Array>
            <mxPoint as="offset" />
          </mxGeometry>
        </mxCell>
        <mxCell id="JJulHIe-GQwOmJBqDQSy-23" value="ENQUEUE&lt;br&gt;REQUEST&lt;br&gt;(+ ref. ClientId)" style="shape=flexArrow;endArrow=classic;html=1;rounded=0;endWidth=18;endSize=5.33;width=12;" edge="1" parent="1">
          <mxGeometry x="-0.3143" y="60" width="50" height="50" relative="1" as="geometry">
            <mxPoint x="340" y="384" as="sourcePoint" />
            <mxPoint x="340" y="314" as="targetPoint" />
            <mxPoint as="offset" />
          </mxGeometry>
        </mxCell>
        <mxCell id="JJulHIe-GQwOmJBqDQSy-25" value="OK&lt;br style=&quot;border-color: var(--border-color);&quot;&gt;Successfully&lt;br style=&quot;border-color: var(--border-color);&quot;&gt;Enqueued&lt;br style=&quot;border-color: var(--border-color);&quot;&gt;the&lt;br style=&quot;border-color: var(--border-color);&quot;&gt;Request" style="curved=1;endArrow=classic;html=1;rounded=0;" edge="1" parent="1">
          <mxGeometry x="0.1914" y="55" width="50" height="50" relative="1" as="geometry">
            <mxPoint x="320" y="440" as="sourcePoint" />
            <mxPoint x="160" y="630" as="targetPoint" />
            <Array as="points">
              <mxPoint x="210" y="500" />
            </Array>
            <mxPoint as="offset" />
          </mxGeometry>
        </mxCell>
        <mxCell id="JJulHIe-GQwOmJBqDQSy-26" value="Long&lt;br&gt;Elaboration&lt;br&gt;Request" style="curved=1;endArrow=classic;html=1;rounded=0;entryX=0.855;entryY=0.855;entryDx=0;entryDy=0;entryPerimeter=0;exitX=0.5;exitY=0;exitDx=0;exitDy=0;exitPerimeter=0;" edge="1" parent="1" target="JJulHIe-GQwOmJBqDQSy-2">
          <mxGeometry x="-0.2664" y="6" width="50" height="50" relative="1" as="geometry">
            <mxPoint x="362.5" y="660" as="sourcePoint" />
            <mxPoint x="529.5" y="453" as="targetPoint" />
            <Array as="points">
              <mxPoint x="377.5" y="490" />
            </Array>
            <mxPoint as="offset" />
          </mxGeometry>
        </mxCell>
        <mxCell id="JJulHIe-GQwOmJBqDQSy-27" value="OK&lt;br&gt;Successfully&lt;br&gt;Enqueued&lt;br&gt;the&lt;br&gt;Request" style="curved=1;endArrow=classic;html=1;rounded=0;exitX=1.1;exitY=0.9;exitDx=0;exitDy=0;exitPerimeter=0;" edge="1" parent="1" source="JJulHIe-GQwOmJBqDQSy-2">
          <mxGeometry x="-0.2594" y="-2" width="50" height="50" relative="1" as="geometry">
            <mxPoint x="540" y="470" as="sourcePoint" />
            <mxPoint x="380" y="660" as="targetPoint" />
            <Array as="points">
              <mxPoint x="430" y="530" />
            </Array>
            <mxPoint as="offset" />
          </mxGeometry>
        </mxCell>
        <mxCell id="JJulHIe-GQwOmJBqDQSy-28" value="" style="verticalLabelPosition=bottom;html=1;verticalAlign=top;align=center;strokeColor=none;fillColor=#00BEF2;shape=mxgraph.azure.worker_role;" vertex="1" parent="1">
          <mxGeometry x="440" y="81" width="50" height="40" as="geometry" />
        </mxCell>
        <mxCell id="JJulHIe-GQwOmJBqDQSy-29" value="" style="verticalLabelPosition=bottom;html=1;verticalAlign=top;align=center;strokeColor=none;fillColor=#00BEF2;shape=mxgraph.azure.worker_role;" vertex="1" parent="1">
          <mxGeometry x="274" y="56" width="50" height="40" as="geometry" />
        </mxCell>
        <mxCell id="JJulHIe-GQwOmJBqDQSy-30" value="" style="endArrow=none;dashed=1;html=1;dashPattern=1 3;strokeWidth=3;rounded=0;" edge="1" parent="1">
          <mxGeometry width="50" height="50" relative="1" as="geometry">
            <mxPoint x="400" y="93" as="sourcePoint" />
            <mxPoint x="430" y="93" as="targetPoint" />
          </mxGeometry>
        </mxCell>
        <mxCell id="JJulHIe-GQwOmJBqDQSy-31" value="REQUESTS&lt;br&gt;HANDLERS &lt;br&gt;(WORKERS)" style="text;html=1;strokeColor=none;fillColor=none;align=center;verticalAlign=middle;whiteSpace=wrap;rounded=0;fontStyle=1" vertex="1" parent="1">
          <mxGeometry x="365" y="26" width="60" height="30" as="geometry" />
        </mxCell>
        <mxCell id="JJulHIe-GQwOmJBqDQSy-32" value="" style="shape=flexArrow;endArrow=classic;html=1;rounded=0;" edge="1" parent="1">
          <mxGeometry width="50" height="50" relative="1" as="geometry">
            <mxPoint x="320" y="230" as="sourcePoint" />
            <mxPoint x="300" y="120" as="targetPoint" />
          </mxGeometry>
        </mxCell>
        <mxCell id="JJulHIe-GQwOmJBqDQSy-34" value="" style="shape=flexArrow;endArrow=classic;html=1;rounded=0;" edge="1" parent="1">
          <mxGeometry width="50" height="50" relative="1" as="geometry">
            <mxPoint x="350" y="230" as="sourcePoint" />
            <mxPoint x="360" y="120" as="targetPoint" />
          </mxGeometry>
        </mxCell>
        <mxCell id="JJulHIe-GQwOmJBqDQSy-35" value="" style="shape=flexArrow;endArrow=classic;html=1;rounded=0;" edge="1" parent="1">
          <mxGeometry width="50" height="50" relative="1" as="geometry">
            <mxPoint x="390" y="230" as="sourcePoint" />
            <mxPoint x="450" y="140" as="targetPoint" />
          </mxGeometry>
        </mxCell>
        <mxCell id="JJulHIe-GQwOmJBqDQSy-36" value="" style="endArrow=none;dashed=1;html=1;dashPattern=1 3;strokeWidth=3;rounded=0;" edge="1" parent="1">
          <mxGeometry width="50" height="50" relative="1" as="geometry">
            <mxPoint x="370" y="191" as="sourcePoint" />
            <mxPoint x="400" y="191" as="targetPoint" />
          </mxGeometry>
        </mxCell>
        <mxCell id="JJulHIe-GQwOmJBqDQSy-37" value="ENQUEUE&lt;br&gt;COMMAND&lt;br&gt;RESULT" style="shape=flexArrow;endArrow=classic;html=1;rounded=0;width=39;endSize=10.33;" edge="1" parent="1">
          <mxGeometry x="-0.0644" y="-50" width="50" height="50" relative="1" as="geometry">
            <mxPoint x="564" y="113.5" as="sourcePoint" />
            <mxPoint x="860" y="114" as="targetPoint" />
            <mxPoint as="offset" />
          </mxGeometry>
        </mxCell>
        <mxCell id="JJulHIe-GQwOmJBqDQSy-38" value="REQUESTS RESULTS QUEUE" style="verticalLabelPosition=bottom;html=1;verticalAlign=top;align=center;strokeColor=none;fillColor=#00BEF2;shape=mxgraph.azure.queue_generic;pointerEvents=1;fontStyle=1" vertex="1" parent="1">
          <mxGeometry x="900" y="90" width="170" height="40" as="geometry" />
        </mxCell>
        <mxCell id="JJulHIe-GQwOmJBqDQSy-39" value="PERSIST&lt;br&gt;REQUEST&lt;br&gt;RESULT" style="shape=flexArrow;endArrow=classic;html=1;rounded=0;width=19;endSize=9.65;" edge="1" parent="1">
          <mxGeometry x="-0.1333" y="-40" width="50" height="50" relative="1" as="geometry">
            <mxPoint x="930" y="260" as="sourcePoint" />
            <mxPoint x="760" y="260" as="targetPoint" />
            <mxPoint as="offset" />
          </mxGeometry>
        </mxCell>
        <mxCell id="JJulHIe-GQwOmJBqDQSy-40" value="REQUESTS&lt;br&gt;RESULTS&lt;br&gt;HANDLER&lt;br&gt;(WORKER)" style="verticalLabelPosition=bottom;html=1;verticalAlign=top;align=center;strokeColor=none;fillColor=#00BEF2;shape=mxgraph.azure.worker_role;fontStyle=1" vertex="1" parent="1">
          <mxGeometry x="952.5" y="240" width="50" height="40" as="geometry" />
        </mxCell>
        <mxCell id="JJulHIe-GQwOmJBqDQSy-41" value="CONSUME&lt;br&gt;QUEUE" style="shape=flexArrow;endArrow=classic;html=1;rounded=0;" edge="1" parent="1">
          <mxGeometry x="-0.3333" y="44" width="50" height="50" relative="1" as="geometry">
            <mxPoint x="980" y="160" as="sourcePoint" />
            <mxPoint x="980" y="230" as="targetPoint" />
            <mxPoint as="offset" />
          </mxGeometry>
        </mxCell>
        <mxCell id="JJulHIe-GQwOmJBqDQSy-42" value="CONSUME&lt;br&gt;QUEUE" style="text;html=1;strokeColor=none;fillColor=none;align=center;verticalAlign=middle;whiteSpace=wrap;rounded=0;" vertex="1" parent="1">
          <mxGeometry x="240" y="170" width="60" height="30" as="geometry" />
        </mxCell>
        <mxCell id="JJulHIe-GQwOmJBqDQSy-44" value="PERSIST&lt;br&gt;REQUEST" style="shape=flexArrow;endArrow=classic;html=1;rounded=0;width=19;endSize=9.65;" edge="1" parent="1">
          <mxGeometry x="-0.1333" y="-40" width="50" height="50" relative="1" as="geometry">
            <mxPoint x="380" y="410" as="sourcePoint" />
            <mxPoint x="650" y="290" as="targetPoint" />
            <mxPoint as="offset" />
          </mxGeometry>
        </mxCell>
        <mxCell id="JJulHIe-GQwOmJBqDQSy-45" value="AZURE&lt;br&gt;SIGNALR&lt;br&gt;HUB" style="ellipse;shape=cloud;whiteSpace=wrap;html=1;fontColor=#009900;strokeColor=#009900;fontStyle=1" vertex="1" parent="1">
          <mxGeometry x="917.5" y="470" width="120" height="80" as="geometry" />
        </mxCell>
        <mxCell id="JJulHIe-GQwOmJBqDQSy-48" value="" style="curved=1;endArrow=classic;html=1;rounded=0;strokeColor=#27b300;strokeWidth=2;fontColor=#009900;startArrow=classic;startFill=1;exitX=0.07;exitY=0.4;exitDx=0;exitDy=0;exitPerimeter=0;" edge="1" parent="1" source="JJulHIe-GQwOmJBqDQSy-45">
          <mxGeometry width="50" height="50" relative="1" as="geometry">
            <mxPoint x="900" y="500" as="sourcePoint" />
            <mxPoint x="180" y="650" as="targetPoint" />
            <Array as="points">
              <mxPoint x="710" y="550" />
            </Array>
          </mxGeometry>
        </mxCell>
        <mxCell id="JJulHIe-GQwOmJBqDQSy-49" value="WebSocket&lt;br style=&quot;border-color: var(--border-color);&quot;&gt;Async&lt;br style=&quot;border-color: var(--border-color);&quot;&gt;Notification&lt;br style=&quot;border-color: var(--border-color);&quot;&gt;OR&lt;br style=&quot;border-color: var(--border-color);&quot;&gt;Request from Client" style="curved=1;endArrow=classic;html=1;rounded=0;strokeColor=#27b300;strokeWidth=2;exitX=0.104;exitY=0.625;exitDx=0;exitDy=0;exitPerimeter=0;fontColor=#009900;startArrow=classic;startFill=1;" edge="1" parent="1" source="JJulHIe-GQwOmJBqDQSy-45">
          <mxGeometry x="-0.3782" y="17" width="50" height="50" relative="1" as="geometry">
            <mxPoint x="920" y="480" as="sourcePoint" />
            <mxPoint x="410" y="670" as="targetPoint" />
            <Array as="points">
              <mxPoint x="740" y="590" />
            </Array>
            <mxPoint as="offset" />
          </mxGeometry>
        </mxCell>
        <mxCell id="JJulHIe-GQwOmJBqDQSy-50" value="" style="curved=1;endArrow=classic;html=1;rounded=0;strokeColor=#27b300;strokeWidth=2;exitX=0.13;exitY=0.77;exitDx=0;exitDy=0;exitPerimeter=0;fontColor=#009900;startArrow=classic;startFill=1;" edge="1" parent="1" source="JJulHIe-GQwOmJBqDQSy-45">
          <mxGeometry x="-0.3779" y="47" width="50" height="50" relative="1" as="geometry">
            <mxPoint x="931" y="510" as="sourcePoint" />
            <mxPoint x="590" y="670" as="targetPoint" />
            <Array as="points">
              <mxPoint x="740" y="650" />
            </Array>
            <mxPoint as="offset" />
          </mxGeometry>
        </mxCell>
        <mxCell id="JJulHIe-GQwOmJBqDQSy-51" value="" style="curved=1;endArrow=classic;html=1;rounded=0;strokeColor=#27b300;strokeWidth=2;entryX=1.12;entryY=0.233;entryDx=0;entryDy=0;entryPerimeter=0;exitX=0.421;exitY=0.913;exitDx=0;exitDy=0;exitPerimeter=0;fontColor=#009900;startArrow=classic;startFill=1;" edge="1" parent="1" source="JJulHIe-GQwOmJBqDQSy-45" target="JJulHIe-GQwOmJBqDQSy-15">
          <mxGeometry x="-0.2347" y="38" width="50" height="50" relative="1" as="geometry">
            <mxPoint x="960" y="538" as="sourcePoint" />
            <mxPoint x="850" y="660" as="targetPoint" />
            <Array as="points" />
            <mxPoint as="offset" />
          </mxGeometry>
        </mxCell>
        <mxCell id="JJulHIe-GQwOmJBqDQSy-53" value="BIDIRECTIONAL&lt;br&gt;WEBSOCKET&lt;br&gt;COMMUNICATION&lt;br&gt;BETWEEN CLIENT&lt;br&gt;AND SERVER" style="endArrow=block;html=1;rounded=1;edgeStyle=orthogonalEdgeStyle;entryX=0.4;entryY=0.1;entryDx=0;entryDy=0;entryPerimeter=0;exitX=1;exitY=0.5;exitDx=0;exitDy=0;exitPerimeter=0;strokeColor=#FF0000;strokeWidth=3;dashed=1;dashPattern=1 1;labelBackgroundColor=none;fontColor=#FF0000;startArrow=block;startFill=1;endFill=1;" edge="1" parent="1" source="JJulHIe-GQwOmJBqDQSy-2" target="JJulHIe-GQwOmJBqDQSy-45">
          <mxGeometry x="0.1892" y="35" width="50" height="50" relative="1" as="geometry">
            <mxPoint x="570" y="420" as="sourcePoint" />
            <mxPoint x="620" y="370" as="targetPoint" />
            <Array as="points">
              <mxPoint x="966" y="425" />
            </Array>
            <mxPoint as="offset" />
          </mxGeometry>
        </mxCell>
        <mxCell id="JJulHIe-GQwOmJBqDQSy-54" value="SEND&lt;br style=&quot;border-color: var(--border-color);&quot;&gt;TO&lt;br style=&quot;border-color: var(--border-color);&quot;&gt;CLIENT&lt;br style=&quot;border-color: var(--border-color);&quot;&gt;THE&lt;br style=&quot;border-color: var(--border-color);&quot;&gt;RESULT&lt;br style=&quot;border-color: var(--border-color);&quot;&gt;NOTIFICATION" style="endArrow=block;html=1;edgeStyle=orthogonalEdgeStyle;strokeColor=#FF0000;strokeWidth=3;dashed=1;dashPattern=1 1;labelBackgroundColor=none;fontColor=#FF0000;startArrow=none;startFill=0;endFill=1;rounded=1;" edge="1" parent="1" source="JJulHIe-GQwOmJBqDQSy-40" target="JJulHIe-GQwOmJBqDQSy-45">
          <mxGeometry x="0.0135" y="40" width="50" height="50" relative="1" as="geometry">
            <mxPoint x="670" y="370" as="sourcePoint" />
            <mxPoint x="1253" y="435" as="targetPoint" />
            <Array as="points">
              <mxPoint x="1080" y="260" />
              <mxPoint x="1080" y="510" />
            </Array>
            <mxPoint y="1" as="offset" />
          </mxGeometry>
        </mxCell>
      </root>
    </mxGraphModel>
  </diagram>
</mxfile>
